<svg width="100" height="100" viewBox="0 0 100 100" fill="none" xmlns="http://www.w3.org/2000/svg">
<path d="M58.3803 85.5621C57.7291 83.9341 57.3053 81.5501 57.0881 78.4571C56.7017 72.9531 57.485 70.7831 57.485 70.7831C57.485 70.7831 64.3853 60.6191 61.5664 53.9911C58.7476 47.3631 49.4357 43.9681 43.798 42.1391C38.1603 40.3111 37.4705 46.9431 39.4654 48.5891C43.074 51.5671 47.936 52.9941 52.5301 59.2301" stroke="black" stroke-width="2" stroke-miterlimit="10" stroke-linecap="round" stroke-linejoin="round"/>
<path d="M61.1336 52.8119C61.1336 52.8119 59.8946 48.1109 60.7775 39.6519C61.6603 31.1929 63.3139 23.0809 63.3292 18.0039C63.3437 13.1789 58.2783 12.6859 56.764 16.6819C54.946 21.4799 55.8943 37.3569 52.4279 36.9569C48.9614 36.5569 46.7086 20.3859 42.719 17.0989C40.5715 15.3309 37.2532 16.1059 37.4763 21.2379C37.6993 26.3699 42.7611 34.9459 42.7611 34.9459" stroke="black" stroke-width="2" stroke-miterlimit="10" stroke-linecap="round" stroke-linejoin="round"/>
<path d="M46.2141 42.3543C46.2141 42.3543 42.8742 33.8163 41.2426 33.1353C38.8943 32.1553 36.1983 33.8083 35.6861 36.7693C35.1739 39.7303 38.3316 42.9363 38.3316 42.9363" stroke="black" stroke-width="2" stroke-miterlimit="10" stroke-linecap="round" stroke-linejoin="round"/>
<path d="M34.9804 37.4717C34.9804 37.4717 29.3398 38.1087 30.0643 43.0437C30.7889 47.9787 32.7359 51.5637 36.1089 54.9867C39.4819 58.4097 41.9277 56.3867 42.3766 54.3307C42.799 52.3957 41.2675 50.0997 41.2675 50.0997" stroke="black" stroke-width="2" stroke-miterlimit="10" stroke-linecap="round" stroke-linejoin="round"/>
<path d="M31.708 49.6455C31.708 49.6455 30.6281 58.3555 34.308 64.4405C36.1219 67.4405 38.4054 69.0385 41.2821 69.9055" stroke="black" stroke-width="2" stroke-miterlimit="10" stroke-linecap="round" stroke-linejoin="round"/>
<path d="M36.9301 68.2666L36.4915 80.5496" stroke="black" stroke-width="2" stroke-miterlimit="10" stroke-linecap="round" stroke-linejoin="round"/>
<path d="M54.3831 71.6494C55.3994 71.6084 56.3371 71.5854 57.9193 70.0684" stroke="black" stroke-width="2" stroke-miterlimit="10" stroke-linecap="round" stroke-linejoin="round"/>
<path d="M36.5419 79.3401L36.3808 84.4672C36.3808 84.4672 42.1681 85.2482 48.8945 85.6742C49.3349 85.7022 49.7792 85.7281 50.2262 85.7531C59.1806 86.2451 69.8494 85.9711 69.3654 82.4611C68.9544 79.4811 57.3127 78.9701 57.3127 78.9701C57.3127 78.9701 57.2633 78.8851 57.6872 81.1411C58.111 83.3971 58.9757 85.8531 58.9757 85.8531C58.9757 85.8531 55.0948 85.9971 49.182 85.7161C43.3923 85.4421 36.3533 84.4522 36.3533 84.4522L36.5419 79.3401Z" fill="black" stroke="black" stroke-width="2" stroke-miterlimit="10" stroke-linecap="round" stroke-linejoin="round"/>
<path d="M47.3605 54.9336C46.7388 56.9096 45.935 59.3486 46.5443 61.2496C46.8176 62.1026 48.0297 63.3726 48.908 63.8376" stroke="black" stroke-width="2" stroke-miterlimit="10" stroke-linecap="round" stroke-linejoin="round"/>
</svg>
